/* XPM */
static char * Arquivar_xpm[] = {
"24 24 7 1",
" 	c None",
".	c #FF00FF",
"+	c #000000",
"@	c #808000",
"#	c #C0C0C0",
"$	c #FFFFFF",
"%	c #808080",
"........................",
"........................",
"........................",
"........................",
"..............++++++....",
"..............+@#@#+....",
"..............+#@##+....",
".....+++......+@###+....",
".....+@+.$.$.$+####+....",
".....+@+%%%%%%+####+....",
".....+@+.$.$.$+####+....",
".....+@+.$.$.$+####+....",
".....+@+.$.$.$+####+....",
".....+@++++++++####+....",
".....+@+%%%%%%+###@+....",
".....+@+%%%%%%+##@#+....",
"....++@+%%+++++#@#@+....",
".....+@+%+####+@#@#+....",
".....+@+%%+++++@@@@+....",
".....+++......++++++....",
"........................",
"........................",
"........................",
"........................"};
