/* XPM */
static char * ArquivarD_xpm[] = {
"24 24 5 1",
" 	c None",
".	c #FF00FF",
"+	c #808080",
"@	c #FFFFFF",
"#	c #C0C0C0",
"........................",
"........................",
"........................",
"........................",
"..............++++++....",
"..............+@#@#+....",
"..............+#@##+....",
".....+++......+@###+....",
".....+@+.@.@.@+####+....",
".....+@++++++++####+....",
".....+@+.@.@.@+####+....",
".....+@+.@.@.@+####+....",
".....+@+.@.@.@+####+....",
".....+@++++++++####+....",
".....+@++++++++###@+....",
".....+@++++++++##@#+....",
"....++@++++++++#@#@+....",
".....+@++@####+@#@#+....",
".....+@++++++++@@@@+....",
".....+++......++++++....",
"........................",
"........................",
"........................",
"........................"};
