/* XPM */
static char * Excluir_xpm[] = {
"24 24 5 1",
" 	c None",
".	c #FF00FF",
"+	c #FFFFFF",
"@	c #800000",
"#	c #808080",
"........................",
"........................",
"........................",
"........................",
"............+@..........",
"........+@..+@#.........",
"........+@#.+@#.........",
"........+@#.+@#.........",
".........+@+@##.........",
".........+@+@#..........",
"..........+@@#..........",
"..........+@@#..........",
"..........+@+@..........",
".........+@#+@..........",
".........+@#.+@.........",
"........+@##..+@@.......",
".......+@@#..+@#+@......",
"......+@#+@..+@#+@#.....",
"......+@#+@#..+@@##.....",
".......+@@##....##......",
".........##.............",
"........................",
"........................",
"........................"};
