/* XPM */
static char * Incluir_xpm[] = {
"24 24 6 1",
" 	c None",
".	c #FF00FF",
"+	c #000000",
"@	c #FFFF00",
"#	c #808080",
"$	c #FFFFFF",
"........................",
"........................",
"........................",
"........................",
"........................",
"............++++........",
"............+@@@+.......",
"...........+@@@@+#......",
"...........++@@+##......",
"..........+$$+++#.......",
"..........+$@@+##.......",
".........+$$@@+#........",
".........+$@@+##........",
"........+$$@@+#.........",
"........+$@@+##.........",
"........++@@+#..........",
"........++++##..........",
"........+++##...........",
"........++##............",
"........+##.............",
".........#..............",
"........................",
"........................",
"........................"};
