/* XPM */
static char * IncluirD_xpm[] = {
"24 24 5 1",
" 	c None",
".	c #FF00FF",
"+	c #808080",
"@	c #C0C0C0",
"#	c #FFFFFF",
"........................",
"........................",
"........................",
"........................",
"........................",
"............++++........",
"............+@@@+.......",
"...........+@@@@++......",
"...........++@@+++......",
"..........+##++++.......",
"..........+#@@+++.......",
".........+##@@++........",
".........+#@@+++........",
"........+##@@++.........",
"........+#@@+++.........",
"........++@@++..........",
"........++++++..........",
"........+++++...........",
"........++++............",
"........+++.............",
".........+..............",
"........................",
"........................",
"........................"};
