/* XPM */
static char * Limpar_xpm[] = {
"24 24 6 1",
" 	c None",
".	c #FF00FF",
"+	c #000000",
"@	c #008000",
"#	c #808080",
"$	c #C0C0C0",
"........................",
"........................",
"........................",
"........................",
"........................",
"........................",
"........................",
"...........++++++++.....",
"..........+@@@@@@++#....",
".........+@@@@@@+@+#....",
"........+@@@@@@+@@+#....",
".......+@@@@@@+@@+##....",
"......+@@@@@@+@@+##.....",
".....+@@@@@@+@@+##......",
"....++++++++@@+##.......",
"....+$$$$$$+@+##........",
"....+$$$$$$++##.........",
"....++++++++##..........",
".....########...........",
"........................",
"........................",
"........................",
"........................",
"........................"};
