/* XPM */
static char * PesquisarD_xpm[] = {
"24 24 5 1",
" 	c None",
".	c #FF00FF",
"+	c #C0C0C0",
"@	c #808080",
"#	c #FFFFFF",
"........................",
"........................",
"........................",
"........................",
"........................",
"............++++........",
"..........@++##++@......",
"..........+##@@##+@.....",
".........++#@####++.....",
".........+#@######+@....",
".........+########+@....",
".........++######++@....",
"..........+######+@@....",
".........++++##++@@.....",
"........+++@++++@@......",
".......+++@@.@@@@.......",
"......+++@@.............",
".....+++@@..............",
"....+++@@...............",
"....@+@@................",
".....@@.................",
"........................",
"........................",
"........................"};
