/* XPM */
static char * Pesquisar_xpm[] = {
"24 24 6 1",
" 	c None",
".	c #FF00FF",
"+	c #0000FF",
"@	c #808080",
"#	c #C0C0C0",
"$	c #FFFFFF",
"........................",
"........................",
"........................",
"........................",
"........................",
"............++++........",
"..........@+#$$#+@......",
"..........+$$@@$$+@.....",
".........+#$@$$$$#+.....",
".........+$@$$$$$$+@....",
".........+$$$$$$$$+@....",
".........+#$$$$$$#+@....",
"..........+$$$$$$+@@....",
".........+++#$$#+@@.....",
"........+++@++++@@......",
".......+++@@.@@@@.......",
"......+++@@.............",
".....+++@@..............",
"....+++@@...............",
"....@+@@................",
".....@@.................",
"........................",
"........................",
"........................"};
