/* XPM */
static char * ProximoD_xpm[] = {
"24 24 4 1",
" 	c None",
".	c #FF00FF",
"+	c #808080",
"@	c #C0C0C0",
"........................",
"........................",
"........................",
"........................",
"........................",
"........................",
"........................",
"........................",
"................+.......",
"................++......",
".....++++++++++++++.....",
".....+@@@@@@@@@@@@++....",
"....@++++++++++++++.....",
"....@@@@@@@@@@@@++......",
"...............@+.......",
"...............@........",
"........................",
"........................",
"........................",
"........................",
"........................",
"........................",
"........................",
"........................"};
