/* XPM */
static char * Proximo_xpm[] = {
"24 24 5 1",
" 	c None",
".	c #FF00FF",
"+	c #000000",
"@	c #FFFFFF",
"#	c #808080",
"........................",
"........................",
"........................",
"........................",
"........................",
"........................",
"........................",
"........................",
"................+.......",
"................++......",
".....++++++++++++++.....",
".....+@@@@@@@@@@@@++....",
"....#++++++++++++++.....",
"....############++......",
"...............#+.......",
"...............#........",
"........................",
"........................",
"........................",
"........................",
"........................",
"........................",
"........................",
"........................"};
