/* XPM */
static char * Sair_xpm[] = {
"24 24 5 1",
" 	c None",
".	c #FF00FF",
"+	c #000000",
"@	c #C0C0C0",
"#	c #808000",
"........................",
"........................",
"........................",
".....++++++++++++++.....",
".....+@@@@@@@@++##+.....",
".....+@@@@@@++####+.....",
".....+@@@@++######+.....",
".....+@@++########+.....",
".....+@@+#########+.....",
".....+@@+#########+.....",
".....+@@+#########+.....",
".....+@@+#########+.....",
".....+@@+#########+.....",
".....+@@+#++######+.....",
".....+@@+#########+.....",
".....+@@+#########+.....",
".....+@@+#########+.....",
".....+@@+#########+.....",
".....+@@+######++++.....",
".....++++####++++++.....",
"........+##++...........",
"........+++.............",
"........................",
"........................"};
